<svg xmlns="http://www.w3.org/2000/svg" width="24" height="24" viewBox="0 0 24 24" fill="none" stroke="currentColor" stroke-width="2" stroke-linecap="round" stroke-linejoin="round">
  <defs>
    <linearGradient id="grad" x1="0%" y1="0%" x2="100%" y2="100%">
      <stop offset="0%" style="stop-color:#3b82f6;stop-opacity:1" />
      <stop offset="100%" style="stop-color:#a855f7;stop-opacity:1" />
    </linearGradient>
  </defs>
  <path d="m12 3-1.912 5.813a2 2 0 0 1-1.275 1.275L3 12l5.813 1.912a2 2 0 0 1 1.275 1.275L12 21l1.912-5.813a2 2 0 0 1 1.275-1.275L21 12l-5.813-1.912a2 2 0 0 1-1.275-1.275L12 3Z" stroke="url(#grad)" fill="url(#grad)"/>
  <path d="M5 3v4" stroke="url(#grad)"/>
  <path d="M19 17v4" stroke="url(#grad)"/>
  <path d="M3 5h4" stroke="url(#grad)"/>
  <path d="M17 19h4" stroke="url(#grad)"/>
</svg>